<?xml version="1.0" encoding="UTF-8"?>
<svg version="1.1" xmlns="http://www.w3.org/2000/svg" width="674" height="370">
<path d="M0 0 C1.11799484 -0.00788544 1.11799484 -0.00788544 2.25857544 -0.01593018 C4.7122315 -0.0290904 7.16523429 -0.02040744 9.61889648 -0.01025391 C11.32852808 -0.01227558 13.03815883 -0.0151878 14.74778748 -0.01895142 C18.32624544 -0.02336918 21.90447839 -0.01696061 25.48291016 -0.00292969 C30.06857713 0.01417493 34.65371783 0.00430964 39.23936558 -0.01364708 C42.76783716 -0.0244887 46.296184 -0.02103708 49.82465935 -0.0132637 C51.51554362 -0.01126341 53.20643924 -0.01371498 54.89731026 -0.02070236 C57.25997043 -0.02832463 59.62177829 -0.01670313 61.984375 0 C63.03103081 -0.00910904 63.03103081 -0.00910904 64.09883118 -0.0184021 C68.22353976 0.03559801 70.46992577 0.48517602 73.42749023 3.38818359 C73.91968155 5.64702892 73.91968155 5.64702892 73.9085083 8.34257507 C73.91400696 9.36481171 73.91950562 10.38704834 73.9251709 11.44026184 C73.91078979 12.56091537 73.89640869 13.68156891 73.8815918 14.83618164 C73.8821759 16.01680176 73.88276001 17.19742188 73.88336182 18.41381836 C73.881051 21.65141658 73.86097865 24.88832503 73.83306599 28.12578559 C73.80807635 31.50902295 73.80571228 34.89227358 73.80096436 38.27558899 C73.78852732 44.68236852 73.75569617 51.08887533 73.7155664 57.49553472 C73.67087108 64.78926009 73.64886734 72.08299843 73.62878466 79.37682664 C73.58696394 94.3807643 73.51659805 109.38444669 73.42749023 124.38818359 C63.97267612 126.64553322 63.97267612 126.64553322 59.67724609 126.59667969 C58.81402237 126.59221832 57.95079865 126.58775696 57.06141663 126.5831604 C56.11874435 126.56780243 55.17607208 126.55244446 54.20483398 126.53662109 C53.15746567 126.52811127 52.11009735 126.51960144 51.0309906 126.51083374 C48.58765694 126.4899914 46.14436051 126.46449024 43.70111084 126.4354248 C38.86147921 126.37870026 34.02174146 126.34925802 29.18188477 126.31884766 C20.47407752 126.26219534 11.76655827 126.18733012 3.05900002 126.10062027 C-2.02639405 126.05016128 -7.11175695 126.00367626 -12.19726562 125.96630859 C-17.18635253 125.92958003 -22.17526425 125.88333108 -27.16420174 125.83012009 C-29.05208401 125.81160333 -30.94000282 125.79648535 -32.82793999 125.78483963 C-35.4401681 125.7680767 -38.05198384 125.73909184 -40.6640625 125.70703125 C-41.44046082 125.70487106 -42.21685913 125.70271088 -43.01678467 125.70048523 C-48.34432174 125.61637161 -48.34432174 125.61637161 -50.57250977 123.38818359 C-50.83320618 120.92126465 -50.83320618 120.92126465 -50.84716797 117.77685547 C-50.85669998 116.60223755 -50.86623199 115.42761963 -50.87605286 114.21740723 C-50.87514145 112.94345093 -50.87423004 111.66949463 -50.87329102 110.35693359 C-50.87757614 109.05494019 -50.88186127 107.75294678 -50.88627625 106.41149902 C-50.89374242 103.65417412 -50.89344412 100.89697725 -50.88818359 98.13964844 C-50.88238437 94.60181464 -50.89932818 91.0645036 -50.92252827 87.52675629 C-50.94077894 84.1576262 -50.937081 80.78861294 -50.93579102 77.41943359 C-50.94500076 76.14547729 -50.95421051 74.871521 -50.96369934 73.55895996 C-50.95747055 72.38434204 -50.95124176 71.20972412 -50.94482422 69.99951172 C-50.94545364 68.96185669 -50.94608307 67.92420166 -50.94673157 66.85510254 C-50.82323837 66.04101929 -50.69974518 65.22693604 -50.57250977 64.38818359 C-47.41936191 62.28608503 -46.71147896 62.1447075 -43.12329102 62.19287109 C-41.85195313 62.20253906 -41.85195313 62.20253906 -40.55493164 62.21240234 C-39.67385742 62.22916016 -38.7927832 62.24591797 -37.88500977 62.26318359 C-36.54599609 62.27671875 -36.54599609 62.27671875 -35.17993164 62.29052734 C-32.97718663 62.31408611 -30.77498389 62.34698031 -28.57250977 62.38818359 C-28.6247168 61.22802734 -28.6247168 61.22802734 -28.67797852 60.04443359 C-28.85272201 53.32096945 -28.45683966 48.47732448 -25.57250977 42.38818359 C-25.20125977 41.50130859 -24.83000977 40.61443359 -24.44750977 39.70068359 C-22.3070813 37.06082182 -21.10688246 36.83243545 -18.00219727 35.65771484 C-15.48228129 34.43852603 -15.48228129 34.43852603 -13.57250977 32.38818359 C-12.39160399 27.5386126 -12.6227289 22.71822749 -12.82250977 17.76318359 C-12.90047806 15.12367154 -12.93912319 12.4903948 -12.96313477 9.84912109 C-13.00470703 8.68171387 -13.0462793 7.51430664 -13.08911133 6.31152344 C-12.57250977 3.38818359 -12.57250977 3.38818359 -10.51350403 1.72973633 C-6.93725196 0.09840682 -3.85275105 -0.03362802 0 0 Z M-2.57250977 10.38818359 C-2.71052267 13.97503845 -2.7948684 17.56121097 -2.86938477 21.14990234 C-2.90918457 22.16725464 -2.94898438 23.18460693 -2.98999023 24.23278809 C-3.24417474 30.09768948 -3.24417474 30.09768948 -0.3515625 34.92895508 C2.18028699 36.2502288 2.18028699 36.2502288 4.93920898 37.28662109 C7.85915846 38.57928319 8.61115589 39.48538813 9.98999023 42.32568359 C12.3271442 48.71170991 12.18561028 55.67601499 12.42749023 62.38818359 C19.68749023 62.71818359 26.94749023 63.04818359 34.42749023 63.38818359 C34.75749023 80.87818359 35.08749023 98.36818359 35.42749023 116.38818359 C44.99749023 116.38818359 54.56749023 116.38818359 64.42749023 116.38818359 C64.42749023 81.73818359 64.42749023 47.08818359 64.42749023 11.38818359 C60.73255266 10.4644492 57.96442047 10.26710973 54.19018555 10.2746582 C52.29867767 10.2747715 52.29867767 10.2747715 50.36895752 10.27488708 C48.99784302 10.27999331 47.62672893 10.2852093 46.25561523 10.29052734 C44.84885712 10.29239331 43.44209835 10.29381637 42.03533936 10.29481506 C38.33968296 10.29862616 34.64406611 10.30844439 30.94842529 10.31951904 C27.1745253 10.32976346 23.40061889 10.33431917 19.62670898 10.33935547 C12.22695141 10.35006796 4.82722637 10.36712743 -2.57250977 10.38818359 Z M-15.61938477 44.90380859 C-18.24654946 48.24556208 -18.02184307 51.08251756 -17.82250977 55.13818359 C-17.80446289 55.83556641 -17.78641602 56.53294922 -17.76782227 57.25146484 C-17.7208953 58.96429899 -17.64915581 60.67642183 -17.57250977 62.38818359 C-15.92250977 62.38818359 -14.27250977 62.38818359 -12.57250977 62.38818359 C-12.57250977 56.11818359 -12.57250977 49.84818359 -12.57250977 43.38818359 C-13.86305261 43.28900346 -13.86305261 43.28900346 -15.61938477 44.90380859 Z M-2.57250977 43.38818359 C-3.77773516 44.3606246 -3.77773516 44.3606246 -3.59423828 46.15405273 C-3.54710693 46.90291748 -3.49997559 47.65178223 -3.45141602 48.42333984 C-3.40307617 49.23222656 -3.35473633 50.04111328 -3.30493164 50.87451172 C-3.24885742 51.72464844 -3.1927832 52.57478516 -3.13500977 53.45068359 C-3.08280273 54.3046875 -3.0305957 55.15869141 -2.97680664 56.03857422 C-2.84672216 58.15540354 -2.71021006 60.27183604 -2.57250977 62.38818359 C-0.92250977 62.38818359 0.72749023 62.38818359 2.42749023 62.38818359 C4.38121241 58.48073924 3.12342207 53.58192935 2.42749023 49.38818359 C0.71884545 45.60153307 0.71884545 45.60153307 -2.57250977 43.38818359 Z M-40.57250977 72.38818359 C-40.57250977 86.90818359 -40.57250977 101.42818359 -40.57250977 116.38818359 C-18.79250977 116.38818359 2.98749023 116.38818359 25.42749023 116.38818359 C25.42749023 101.86818359 25.42749023 87.34818359 25.42749023 72.38818359 C21.13749023 72.38818359 16.84749023 72.38818359 12.42749023 72.38818359 C11.76749023 74.36818359 11.10749023 76.34818359 10.42749023 78.38818359 C8.44749023 78.38818359 6.46749023 78.38818359 4.42749023 78.38818359 C3.76749023 76.40818359 3.10749023 74.42818359 2.42749023 72.38818359 C-4.17250977 72.38818359 -10.77250977 72.38818359 -17.57250977 72.38818359 C-18.23250977 74.36818359 -18.89250977 76.34818359 -19.57250977 78.38818359 C-21.88250977 78.38818359 -24.19250977 78.38818359 -26.57250977 78.38818359 C-27.23250977 76.40818359 -27.89250977 74.42818359 -28.57250977 72.38818359 C-32.53250977 72.38818359 -36.49250977 72.38818359 -40.57250977 72.38818359 Z " fill="#F8577D" transform="translate(323.572509765625,71.61181640625)"/>
<path d="M0 0 C7.59 0 15.18 0 23 0 C24.96870687 2.95306031 25.64544242 4.93097997 26.5078125 8.32421875 C26.77207031 9.35224609 27.03632813 10.38027344 27.30859375 11.43945312 C27.57800781 12.51130859 27.84742188 13.58316406 28.125 14.6875 C28.54072266 16.31268555 28.54072266 16.31268555 28.96484375 17.97070312 C29.64836717 20.64587235 30.32653231 23.32228484 31 26 C33.29040396 18.38385089 35.37691768 10.87674196 36.60546875 3.01171875 C37 1 37 1 38 0 C45.59 0 53.18 0 61 0 C61 17.16 61 34.32 61 52 C55.39 52 49.78 52 44 52 C43.505 41.605 43.505 41.605 43 31 C41.02 37.93 39.04 44.86 37 52 C32.38 52 27.76 52 23 52 C21.02 45.4 19.04 38.8 17 32 C16.67 38.6 16.34 45.2 16 52 C10.72 52 5.44 52 0 52 C0 34.84 0 17.68 0 0 Z " fill="#484C53" transform="translate(351,214)"/>
<path d="M0 0 C4.87978591 4.32526479 6.46088871 8.66144164 7.1328125 15.11328125 C7.51740847 28.07416547 7.51740847 28.07416547 2.75 33.4375 C-4.83969837 38.46100937 -13.0563163 39.65651734 -21.94921875 37.90625 C-27.8746948 36.27652266 -32.18470774 34.36162667 -35.828125 29.203125 C-38.87322553 23.28023716 -38.62668001 16.03240674 -37.6875 9.5625 C-35.18837302 4.12961526 -31.83498855 -0.1847326 -26.25 -2.5625 C-17.17213454 -4.6736315 -8.38880222 -4.03307799 0 0 Z M-19.625 9.375 C-20.16125 10.055625 -20.6975 10.73625 -21.25 11.4375 C-17.62 11.4375 -13.99 11.4375 -10.25 11.4375 C-10.58 10.4475 -10.91 9.4575 -11.25 8.4375 C-15.75810087 7.10370222 -15.75810087 7.10370222 -19.625 9.375 Z M-21.25 20.4375 C-20.92 22.0875 -20.59 23.7375 -20.25 25.4375 C-17.42282787 27.77046251 -17.42282787 27.77046251 -14.1875 27.1875 C-11.150541 26.6781756 -11.150541 26.6781756 -9.25 24.4375 C-9.25 23.4475 -9.25 22.4575 -9.25 21.4375 C-4.63 21.4375 -0.01 21.4375 4.75 21.4375 C4.75 21.1075 4.75 20.7775 4.75 20.4375 C-3.83 20.4375 -12.41 20.4375 -21.25 20.4375 Z " fill="#4C4F57" transform="translate(456.25,228.5625)"/>
<path d="M0 0 C2.51836025 2.51836025 2.97908906 3.63754379 3.1875 7.25 C3.0946875 8.61125 3.0946875 8.61125 3 10 C1.02 10.66 -0.96 11.32 -3 12 C-2.030625 12.598125 -1.06125 13.19625 -0.0625 13.8125 C3 16 3 16 4 19 C4.40434578 23.15232017 4.404652 26.86191625 3 30.8125 C-0.85594454 35.02993934 -6.9097909 37.75872241 -12.6015625 38.203125 C-20.82855592 38.33067529 -27.62960816 37.94909286 -34 32.375 C-34.66 31.59125 -35.32 30.8075 -36 30 C-36.33 29.67 -36.66 29.34 -37 29 C-37.04080783 27.00041636 -37.04254356 24.99954746 -37 23 C-34.54101345 22.91923037 -32.08466258 22.85962857 -29.625 22.8125 C-28.92632812 22.78736328 -28.22765625 22.76222656 -27.5078125 22.73632812 C-25.4765625 22.70703125 -25.4765625 22.70703125 -22 23 C-21.34 23.99 -20.68 24.98 -20 26 C-16.41642759 26.25015873 -16.41642759 26.25015873 -13 26 C-16.6719072 24.31704253 -20.12060784 22.89622982 -24.0625 22 C-28.35570419 20.9829691 -32.49212482 19.85057408 -35.375 16.3125 C-36.70776512 11.38126906 -36.71867905 6.84889865 -34.625 2.1875 C-32.16641678 -1.59095422 -29.05193426 -2.55175022 -24.7890625 -3.5703125 C-16.36387492 -4.86831059 -7.40269637 -4.75887624 0 0 Z M-20 9 C-17.29120665 10.35439668 -14.99066732 10.06501451 -12 10 C-12.33 9.01 -12.66 8.02 -13 7 C-17.04622502 6.63019987 -17.04622502 6.63019987 -20 9 Z " fill="#4A4E55" transform="translate(341,229)"/>
<path d="M0 0 C4.95 0 9.9 0 15 0 C15.04898437 1.78148437 15.09796875 3.56296875 15.1484375 5.3984375 C15.22345483 7.72397463 15.29900309 10.04949468 15.375 12.375 C15.4059375 13.550625 15.436875 14.72625 15.46875 15.9375 C15.52675781 17.61972656 15.52675781 17.61972656 15.5859375 19.3359375 C15.6173584 20.37282715 15.6487793 21.4097168 15.68115234 22.47802734 C15.75954472 25.16809835 15.75954472 25.16809835 18 27 C21.30683466 26.71016731 21.30683466 26.71016731 24 25 C24.15786308 23.14825294 24.25107356 21.2909089 24.31640625 19.43359375 C24.35830078 18.30888672 24.40019531 17.18417969 24.44335938 16.02539062 C24.48267578 14.84138672 24.52199219 13.65738281 24.5625 12.4375 C24.60568359 11.24962891 24.64886719 10.06175781 24.69335938 8.83789062 C24.79983453 5.89207803 24.90045681 2.94605498 25 0 C30.28 0 35.56 0 41 0 C41.77328928 5.35314059 42.07577393 10.35645184 41.87890625 15.78125 C41.84348976 16.82968079 41.84348976 16.82968079 41.80735779 17.89929199 C41.7316769 20.0997858 41.6472516 22.29983885 41.5625 24.5 C41.50918316 26.00518781 41.4564437 27.5103962 41.40429688 29.015625 C41.27619434 32.67734463 41.14025565 36.33872338 41 40 C36.71 40 32.42 40 28 40 C28 39.34 28 38.68 28 38 C25.37142518 38.45061283 23.11959608 38.94505045 20.6875 40.0625 C15.73722548 41.78933995 11.571578 41.57423042 6.75 39.8125 C3.64460357 37.76576145 2.02061538 36.12865183 0 33 C-0.34291942 30.28374631 -0.47072866 27.9935759 -0.390625 25.29296875 C-0.38496521 24.56757401 -0.37930542 23.84217926 -0.37347412 23.09480286 C-0.35119099 20.79167992 -0.30101487 18.49014776 -0.25 16.1875 C-0.22992434 14.62046528 -0.21167543 13.05340601 -0.1953125 11.48632812 C-0.15476329 7.65645531 -0.07647245 3.82999504 0 0 Z " fill="#4A4E55" transform="translate(258,226)"/>
<path d="M0 0 C5.94 0 11.88 0 18 0 C18.0690008 5.72962199 18.12869546 11.45779304 18.16479492 17.1875 C18.17984899 19.13514094 18.2002968 21.08274816 18.22631836 23.03027344 C18.26285053 25.83537128 18.27976033 28.64001954 18.29296875 31.4453125 C18.30845261 32.31116974 18.32393646 33.17702698 18.33988953 34.06912231 C18.34128841 39.13388894 17.84868312 42.62857847 15 47 C7.32415305 53.14067756 -0.48662006 53.7610704 -10 53 C-15.20420654 51.81046708 -19.34742375 48.82246352 -23 45 C-24.85718071 40.61918618 -25 36.75838462 -25 32 C-19.39 32 -13.78 32 -8 32 C-7.34 33.98 -6.68 35.96 -6 38 C-4.02 38 -2.04 38 0 38 C0 25.46 0 12.92 0 0 Z " fill="#494C54" transform="translate(232,214)"/>
<path d="M0 0 C1.08539063 -0.02900391 2.17078125 -0.05800781 3.2890625 -0.08789062 C9.55583375 -0.13768771 13.59534677 -0.08784271 18.25 4.3125 C21.01183525 8.33188559 20.76404646 12.6102389 20.25 17.3125 C18.90967119 21.08217478 17.35600023 22.23405983 14.125 24.625 C6.9745696 27.88123689 -3.06036717 27.66654892 -10.5234375 25.51171875 C-13.75593687 23.9555527 -16.38861667 21.99098337 -18.75 19.3125 C-19.99122431 15.58882708 -20.20060151 13.23917034 -19.75 9.3125 C-14.43779885 0.11013308 -10.08759347 0.08859128 0 0 Z M-8.75 10.3125 C-9.08 11.6325 -9.41 12.9525 -9.75 14.3125 C-7.8104886 16.2520114 -4.9379288 15.44506629 -2.36132812 15.44921875 C-1.52021484 15.44535156 -0.67910156 15.44148438 0.1875 15.4375 C1.02474609 15.44136719 1.86199219 15.44523437 2.72460938 15.44921875 C3.52576172 15.44792969 4.32691406 15.44664063 5.15234375 15.4453125 C6.25823853 15.44362061 6.25823853 15.44362061 7.38647461 15.44189453 C9.34331601 15.42591854 9.34331601 15.42591854 11.25 14.3125 C10.59 12.9925 9.93 11.6725 9.25 10.3125 C3.31 10.3125 -2.63 10.3125 -8.75 10.3125 Z " fill="#F95178" transform="translate(353.75,87.6875)"/>
<path d="M0 0 C1.50433594 0.01353516 1.50433594 0.01353516 3.0390625 0.02734375 C3.80992187 0.03894531 4.58078125 0.05054688 5.375 0.0625 C5.045 1.7125 4.715 3.3625 4.375 5.0625 C2.725 5.3925 1.075 5.7225 -0.625 6.0625 C-0.625 21.2425 -0.625 36.4225 -0.625 52.0625 C20.165 52.3925 40.955 52.7225 62.375 53.0625 C63.62046405 55.55342811 63.1517578 56.47330733 62.375 59.0625 C60.89386719 59.04509766 60.89386719 59.04509766 59.3828125 59.02734375 C58.10148437 59.01832031 56.82015625 59.00929687 55.5 59 C53.58574219 58.98259766 53.58574219 58.98259766 51.6328125 58.96484375 C48.48835348 58.83073431 48.48835348 58.83073431 46.375 60.0625 C44.64807157 60.12454168 42.91858211 60.12038893 41.19091797 60.08422852 C40.09481201 60.06380493 38.99870605 60.04338135 37.86938477 60.02233887 C36.71365967 59.9956311 35.55793457 59.96892334 34.3671875 59.94140625 C33.30765869 59.92074097 32.24812988 59.90007568 31.15649414 59.87878418 C27.1875462 59.79984738 23.21878215 59.71187347 19.25 59.625 C5.946875 59.3465625 5.946875 59.3465625 -7.625 59.0625 C-7.625 39.9225 -7.625 20.7825 -7.625 1.0625 C-4.98041621 -0.25979189 -2.94738699 -0.03427194 0 0 Z " fill="#FD4E77" transform="translate(282.625,135.9375)"/>
<path d="M0 0 C0.66 0 1.32 0 2 0 C2 1.98 2 3.96 2 6 C0.02 6.66 -1.96 7.32 -4 8 C-3.030625 8.598125 -2.06125 9.19625 -1.0625 9.8125 C2 12 2 12 3 15 C3.40434578 19.15232017 3.404652 22.86191625 2 26.8125 C-1.85594454 31.02993934 -7.9097909 33.75872241 -13.6015625 34.203125 C-21.82855592 34.33067529 -28.62960816 33.94909286 -35 28.375 C-35.66 27.59125 -36.32 26.8075 -37 26 C-37.33 25.67 -37.66 25.34 -38 25 C-38.04080783 23.00041636 -38.04254356 20.99954746 -38 19 C-35.54101345 18.91923037 -33.08466258 18.85962857 -30.625 18.8125 C-29.92632812 18.78736328 -29.22765625 18.76222656 -28.5078125 18.73632812 C-26.4765625 18.70703125 -26.4765625 18.70703125 -23 19 C-22.34 19.99 -21.68 20.98 -21 22 C-17.54230809 22.58342353 -17.54230809 22.58342353 -14 22 C-12.15684329 20.0995533 -12.15684329 20.0995533 -11 18 C-10.34 18 -9.68 18 -9 18 C-9 17.34 -9 16.68 -9 16 C-9.66 16 -10.32 16 -11 16 C-11.33 14.68 -11.66 13.36 -12 12 C-10.68 11.67 -9.36 11.34 -8 11 C-8 10.01 -8 9.02 -8 8 C-9.32 7.34 -10.64 6.68 -12 6 C-10.02 6 -8.04 6 -6 6 C-6 5.34 -6 4.68 -6 4 C-4.68 3.34 -3.36 2.68 -2 2 C-1.505 2.495 -1.505 2.495 -1 3 C-0.67 2.01 -0.34 1.02 0 0 Z " fill="#4E5259" transform="translate(342,233)"/>
<path d="M0 0 C0.33 0 0.66 0 1 0 C1 39.93 1 79.86 1 121 C-9.12383281 123.24974063 -9.12383281 123.24974063 -12.75024414 123.20849609 C-13.61346786 123.20403473 -14.47669159 123.19957336 -15.36607361 123.19497681 C-16.30874588 123.17961884 -17.25141815 123.16426086 -18.22265625 123.1484375 C-19.27002457 123.13992767 -20.31739288 123.13141785 -21.39649963 123.12265015 C-23.83983329 123.1018078 -26.28312972 123.07630664 -28.72637939 123.04724121 C-33.56601103 122.99051667 -38.40574877 122.96107443 -43.24560547 122.93066406 C-51.95341272 122.87401174 -60.66093196 122.79914653 -69.36849022 122.71243668 C-74.45388428 122.66197769 -79.53924718 122.61549266 -84.62475586 122.578125 C-89.61384277 122.54139643 -94.60275449 122.49514749 -99.59169197 122.44193649 C-101.47957425 122.42341973 -103.36749306 122.40830175 -105.25543022 122.39665604 C-107.86765833 122.37989311 -110.47947407 122.35090825 -113.09155273 122.31884766 C-113.86795105 122.31668747 -114.64434937 122.31452728 -115.4442749 122.31230164 C-120.77181198 122.22818802 -120.77181198 122.22818802 -123 120 C-123.26069641 117.53308105 -123.26069641 117.53308105 -123.2746582 114.38867188 C-123.28419022 113.21405396 -123.29372223 112.03943604 -123.30354309 110.82922363 C-123.30263168 109.55526733 -123.30172028 108.28131104 -123.30078125 106.96875 C-123.30506638 105.66675659 -123.3093515 104.36476318 -123.31376648 103.02331543 C-123.32123265 100.26599053 -123.32093436 97.50879366 -123.31567383 94.75146484 C-123.3098746 91.21363105 -123.32681841 87.67632001 -123.3500185 84.13857269 C-123.36826917 80.76944261 -123.36457123 77.40042934 -123.36328125 74.03125 C-123.372491 72.7572937 -123.38170074 71.4833374 -123.39118958 70.17077637 C-123.38496078 68.99615845 -123.37873199 67.82154053 -123.37231445 66.61132812 C-123.37294388 65.5736731 -123.3735733 64.53601807 -123.3742218 63.46691895 C-123.18898201 62.24579407 -123.18898201 62.24579407 -123 61 C-119.84685215 58.89790143 -119.13896919 58.7565239 -115.55078125 58.8046875 C-114.27944336 58.81435547 -114.27944336 58.81435547 -112.98242188 58.82421875 C-112.10134766 58.84097656 -111.22027344 58.85773438 -110.3125 58.875 C-108.97348633 58.88853516 -108.97348633 58.88853516 -107.60742188 58.90234375 C-105.40483334 58.92590085 -103.20238275 58.96177156 -101 59 C-101 55.04 -101 51.08 -101 47 C-100.67 47 -100.34 47 -100 47 C-100 51.62 -100 56.24 -100 61 C-110.395 61.495 -110.395 61.495 -121 62 C-121 81.14 -121 100.28 -121 120 C-99.23917536 120.03002232 -99.23917536 120.03002232 -77.47834778 120.05025387 C-69.69844963 120.0558036 -61.91856217 120.06285846 -54.13867188 120.07543945 C-47.32412994 120.08645413 -40.50959956 120.09227766 -33.69504929 120.09487724 C-31.08982537 120.09673079 -28.48460211 120.10035007 -25.87938309 120.10573006 C-22.24200299 120.11294557 -18.60467121 120.11399072 -14.96728516 120.11352539 C-13.8804393 120.11712067 -12.79359344 120.12071594 -11.67381287 120.12442017 C-10.68660751 120.1230455 -9.69940216 120.12167084 -8.68228149 120.12025452 C-7.39084952 120.12163721 -7.39084952 120.12163721 -6.07332802 120.12304783 C-3.93759392 120.13272982 -3.93759392 120.13272982 -2 119 C-1.14837373 104.45945316 -0.80101059 89.95411055 -0.68359375 75.390625 C-0.66295529 73.19960196 -0.64195741 71.00858227 -0.62062073 68.81756592 C-0.56610991 63.12309537 -0.51639564 57.42859329 -0.46777344 51.73406982 C-0.41703108 45.89430014 -0.36162377 40.05457477 -0.30664062 34.21484375 C-0.19993101 22.80993392 -0.09830228 11.40498518 0 0 Z " fill="#DE6480" transform="translate(396,75)"/>
<path d="M0 0 C0.99 0 1.98 0 3 0 C3 1.32 3 2.64 3 4 C3.928125 3.95875 4.85625 3.9175 5.8125 3.875 C9 4 9 4 12 6 C12.66 5.34 13.32 4.68 14 4 C19.95169082 3.4589372 19.95169082 3.4589372 22.9375 5 C24.6702278 8.26160527 24.73731698 11.46229641 24 15 C22 17.625 22 17.625 19 19 C16.82369597 18.77136105 14.94071475 18.27199015 12.8671875 17.578125 C10.84814384 16.85211471 10.84814384 16.85211471 8 17 C8 14.03 8 11.06 8 8 C6.35 8 4.7 8 3 8 C3 11.3 3 14.6 3 18 C1.68 17.67 0.36 17.34 -1 17 C-1.969375 17.37125 -2.93875 17.7425 -3.9375 18.125 C-7 19 -7 19 -9.875 17.625 C-10.57625 17.08875 -11.2775 16.5525 -12 16 C-12.33 16.66 -12.66 17.32 -13 18 C-13.99 17.67 -14.98 17.34 -16 17 C-16 13.04 -16 9.08 -16 5 C-13.525 5.495 -13.525 5.495 -11 6 C-10.34 5.34 -9.68 4.68 -9 4 C-3.66666667 3.66666667 -3.66666667 3.66666667 -1 5 C-0.67 3.35 -0.34 1.7 0 0 Z M-13 7 C-13 8.65 -13 10.3 -13 12 C-12.67 12 -12.34 12 -12 12 C-12 10.35 -12 8.7 -12 7 C-12.33 7 -12.66 7 -13 7 Z M-8 8 C-8 9.98 -8 11.96 -8 14 C-6.68 14.33 -5.36 14.66 -4 15 C-3.01 13.68 -2.02 12.36 -1 11 C-1.99 10.67 -2.98 10.34 -4 10 C-4 9.34 -4 8.68 -4 8 C-5.32 8 -6.64 8 -8 8 Z M15 8 C15 8.33 15 8.66 15 9 C16.65 9 18.3 9 20 9 C20 8.67 20 8.34 20 8 C18.35 8 16.7 8 15 8 Z " fill="#E66684" transform="translate(277,275)"/>
<path d="M0 0 C0.66 0.33 1.32 0.66 2 1 C2 1.99 2 2.98 2 4 C2.99 4.33 3.98 4.66 5 5 C4.01 6.485 4.01 6.485 3 8 C2.60612212 10.32387947 2.26513915 12.65793749 2 15 C2.66 15 3.32 15 4 15 C4 16.32 4 17.64 4 19 C2.35 18.67 0.7 18.34 -1 18 C-1 15.03 -1 12.06 -1 9 C-1.99 9.33 -2.98 9.66 -4 10 C-3.34 10.66 -2.68 11.32 -2 12 C-2.375 14.625 -2.375 14.625 -3 17 C-7.27147143 18.68872126 -9.58160067 18.96989254 -14 18 C-15.175625 18.185625 -16.35125 18.37125 -17.5625 18.5625 C-21 19 -21 19 -25 17 C-25 13.04 -25 9.08 -25 5 C-24.34 4.67 -23.68 4.34 -23 4 C-22.34 4.33 -21.68 4.66 -21 5 C-19.70588235 12.41176471 -19.70588235 12.41176471 -21 15 C-20.01 15 -19.02 15 -18 15 C-18 11.7 -18 8.4 -18 5 C-15.7089095 4.80558632 -13.41709663 4.61966865 -11.125 4.4375 C-9.21074219 4.28087891 -9.21074219 4.28087891 -7.2578125 4.12109375 C-4 4 -4 4 -2 5 C-1.34 3.35 -0.68 1.7 0 0 Z M-13 11 C-13 11.66 -13 12.32 -13 13 C-12.01 13 -11.02 13 -10 13 C-10 13.66 -10 14.32 -10 15 C-8.68 14.67 -7.36 14.34 -6 14 C-9.25397508 11.74114676 -9.25397508 11.74114676 -13 11 Z " fill="#E3869D" transform="translate(343,275)"/>
<path d="M0 0 C2.125 0.9375 2.125 0.9375 4 2 C3.01 3.485 3.01 3.485 2 5 C2.69867188 4.97679687 3.39734375 4.95359375 4.1171875 4.9296875 C5.02726562 4.91164063 5.93734375 4.89359375 6.875 4.875 C8.23238281 4.84019531 8.23238281 4.84019531 9.6171875 4.8046875 C12 5 12 5 14 7 C14.66 6.34 15.32 5.68 16 5 C19.125 4.875 19.125 4.875 22 5 C21.67 6.32 21.34 7.64 21 9 C20.34 9 19.68 9 19 9 C19 11.97 19 14.94 19 18 C17.68 18 16.36 18 15 18 C14.195625 18.350625 13.39125 18.70125 12.5625 19.0625 C9.53447256 20.17031492 8.03668783 19.98487173 5 19 C1.99382731 15.99382731 2.40414684 13.17618402 2 9 C1.67 12.3 1.34 15.6 1 19 C-0.32 18.67 -1.64 18.34 -3 18 C-3.22354607 16.10590022 -3.42819951 14.2095652 -3.625 12.3125 C-3.74101562 11.25675781 -3.85703125 10.20101563 -3.9765625 9.11328125 C-4.00128264 5.82962272 -3.52874143 3.88588943 -2 1 C-1.34 0.67 -0.68 0.34 0 0 Z M6 9 C6 10.98 6 12.96 6 15 C7.94603274 15.59070014 7.94603274 15.59070014 10 16 C11.35618499 14.87465895 11.35618499 14.87465895 11.0625 11.9375 C11.041875 10.968125 11.02125 9.99875 11 9 C9.35 9 7.7 9 6 9 Z " fill="#ECA5B9" transform="translate(355,274)"/>
<path d="M0 0 C16.83 0 33.66 0 51 0 C51 0.33 51 0.66 51 1 C34.83 1 18.66 1 2 1 C2.33 8.26 2.66 15.52 3 23 C5.97 24.65 8.94 26.3 12 28 C16.1414791 33.62057878 16.1414791 33.62057878 15.75 37.4375 C15.5025 37.953125 15.255 38.46875 15 39 C14.773125 38.38125 14.54625 37.7625 14.3125 37.125 C12.62070165 34.38589791 11.00755839 33.94975528 8 33 C8.350625 34.0725 8.70125 35.145 9.0625 36.25 C10.50675445 41.86542289 9.7012853 47.31390298 9 53 C6.43668639 50.43668639 6.72130995 49.24388044 6.5625 45.6875 C6.25252219 41.39289827 5.83233118 38.42240017 3 35 C2.67 35 2.34 35 2 35 C2 40.94 2 46.88 2 53 C1.34 53 0.68 53 0 53 C0 46.4 0 39.8 0 33 C2.475 32.505 2.475 32.505 5 32 C4.81584568 29.05908413 4.81584568 29.05908413 4 26 C2.68 25.34 1.36 24.68 0 24 C0 16.08 0 8.16 0 0 Z " fill="#F46685" transform="translate(319,81)"/>
<path d="M0 0 C1.07636719 -0.01998047 2.15273438 -0.03996094 3.26171875 -0.06054688 C9.47752299 -0.05671469 13.50278259 0.09749719 18.125 4.4375 C20.0917744 7.28028024 20.3981554 9.57879033 20.375 13 C20.38273437 14.14662109 20.38273437 14.14662109 20.390625 15.31640625 C20.125 17.4375 20.125 17.4375 18.125 20.4375 C18.125 18.1275 18.125 15.8175 18.125 13.4375 C17.465 13.1075 16.805 12.7775 16.125 12.4375 C15.135 12.7675 14.145 13.0975 13.125 13.4375 C12.795 14.4275 12.465 15.4175 12.125 16.4375 C5.525 16.4375 -1.075 16.4375 -7.875 16.4375 C-7.875 16.1075 -7.875 15.7775 -7.875 15.4375 C-1.605 15.1075 4.665 14.7775 11.125 14.4375 C10.465 13.4475 9.805 12.4575 9.125 11.4375 C7.19423522 11.02321654 7.19423522 11.02321654 4.9921875 11.14453125 C4.18652344 11.15419922 3.38085938 11.16386719 2.55078125 11.17382812 C1.28814453 11.2115332 1.28814453 11.2115332 0 11.25 C-0.84949219 11.26353516 -1.69898438 11.27707031 -2.57421875 11.29101562 C-4.67474837 11.32641781 -6.77495293 11.38022599 -8.875 11.4375 C-9.205 13.0875 -9.535 14.7375 -9.875 16.4375 C-10.205 16.4375 -10.535 16.4375 -10.875 16.4375 C-11.205 14.1275 -11.535 11.8175 -11.875 9.4375 C-11.02736084 9.32474731 -11.02736084 9.32474731 -10.16259766 9.2097168 C-7.6063141 8.86184978 -5.05335884 8.49369621 -2.5 8.125 C-1.61054688 8.00705078 -0.72109375 7.88910156 0.1953125 7.76757812 C1.47148437 7.57905273 1.47148437 7.57905273 2.7734375 7.38671875 C3.55895996 7.27674561 4.34448242 7.16677246 5.15380859 7.0534668 C7.50764671 6.54465748 7.50764671 6.54465748 9.125 3.4375 C4.48836046 2.19059494 0.22580436 2.5241937 -4.5 2.875 C-12.72222222 3.4375 -12.72222222 3.4375 -15.875 3.4375 C-11.06828605 -0.82579098 -6.13466848 -0.04011971 0 0 Z " fill="#F56084" transform="translate(353.875,87.5625)"/>
<path d="M0 0 C0.99 0.33 1.98 0.66 3 1 C3.99 1 4.98 1 6 1 C6 4.3 6 7.6 6 11 C7.32 11 8.64 11 10 11 C10 7.7 10 4.4 10 1 C11.32 1 12.64 1 14 1 C14 4.96 14 8.92 14 13 C10.8125 14.1875 10.8125 14.1875 7 15 C4.0625 13.625 4.0625 13.625 2 12 C1.29875 12.53625 0.5975 13.0725 -0.125 13.625 C-3 15 -3 15 -6.1875 14.375 C-9 13 -9 13 -11 10 C-10.81989972 6.63812807 -10.58112046 4.00081858 -8.875 1.0625 C-5.92662565 -0.60824546 -3.31463528 -0.23675966 0 0 Z M-6 4 C-6.93423645 7.01031744 -7.04449911 7.86650268 -6 11 C-4.68 10.67 -3.36 10.34 -2 10 C-1.67 8.02 -1.34 6.04 -1 4 C-2.65 4 -4.3 4 -6 4 Z " fill="#EB91A5" transform="translate(406,279)"/>
<path d="M0 0 C0.33 0 0.66 0 1 0 C1 39.93 1 79.86 1 121 C-9.13131919 123.25140426 -9.13131919 123.25140426 -12.80078125 123.23046875 C-13.67484619 123.22917969 -14.54891113 123.22789062 -15.44946289 123.2265625 C-16.39426514 123.21367187 -17.33906738 123.20078125 -18.3125 123.1875 C-19.8428186 123.17783203 -19.8428186 123.17783203 -21.40405273 123.16796875 C-39.93806859 122.99881695 -58.47160186 122.4669668 -77 122 C-77 121.67 -77 121.34 -77 121 C-75.63483749 120.9845388 -75.63483749 120.9845388 -74.24209595 120.96876526 C-65.67785747 120.87091058 -57.11368998 120.76841345 -48.54957008 120.66066074 C-44.14635371 120.60542489 -39.7431307 120.55200383 -35.33984375 120.50268555 C-31.09284956 120.45505176 -26.84593744 120.40270932 -22.59904099 120.34705925 C-20.97630219 120.32663122 -19.35354088 120.30791888 -17.73076248 120.29092598 C-15.46316619 120.26689184 -13.19572557 120.23683607 -10.92822266 120.20532227 C-9.63582672 120.18977798 -8.34343079 120.1742337 -7.01187134 120.15821838 C-4.0774375 120.20525076 -4.0774375 120.20525076 -2 119 C-1.14837373 104.45945316 -0.80101059 89.95411055 -0.68359375 75.390625 C-0.66295529 73.19960196 -0.64195741 71.00858227 -0.62062073 68.81756592 C-0.56610991 63.12309537 -0.51639564 57.42859329 -0.46777344 51.73406982 C-0.41703108 45.89430014 -0.36162377 40.05457477 -0.30664062 34.21484375 C-0.19993101 22.80993392 -0.09830228 11.40498518 0 0 Z " fill="#E68299" transform="translate(396,75)"/>
<path d="M0 0 C4.55015893 1.51671964 6.50057264 5.16891053 9 9 C9.33 6.36 9.66 3.72 10 1 C10.99 0.67 11.98 0.34 13 0 C14.60670684 3.21341369 13.82510855 6.62958968 13.5625 10.125 C13.51029297 10.87910156 13.45808594 11.63320313 13.40429688 12.41015625 C13.27454996 14.2737937 13.13792512 16.13694996 13 18 C8.71640327 16.1144852 6.84896408 13.64034299 4 10 C3.67 12.31 3.34 14.62 3 17 C1.68 17.33 0.36 17.66 -1 18 C-1.02684312 15.18743719 -1.04676188 12.37512759 -1.0625 9.5625 C-1.07087891 8.76005859 -1.07925781 7.95761719 -1.08789062 7.13085938 C-1.0965143 5.08704779 -1.0522815 3.04316098 -1 1 C-0.67 0.67 -0.34 0.34 0 0 Z " fill="#EC8AA2" transform="translate(246,275)"/>
<path d="M0 0 C3.89696309 0.33025111 5.66229208 0.89233366 8.6875 3.3125 C10.125 5.25 10.125 5.25 10.6875 7.3125 C9.8125 9.5625 9.8125 9.5625 8.6875 11.3125 C7.02083333 11.3125 5.35416667 11.3125 3.6875 11.3125 C3.6875 11.9725 3.6875 12.6325 3.6875 13.3125 C1.3775 13.3125 -0.9325 13.3125 -3.3125 13.3125 C-3.6425 12.6525 -3.9725 11.9925 -4.3125 11.3125 C-6.2925 11.3125 -8.2725 11.3125 -10.3125 11.3125 C-9.9825 10.3225 -9.6525 9.3325 -9.3125 8.3125 C-8.6525 8.6425 -7.9925 8.9725 -7.3125 9.3125 C-7.02375 8.19875 -6.735 7.085 -6.4375 5.9375 C-5.0462736 1.45465938 -4.72113173 0.44538979 0 0 Z " fill="#454950" transform="translate(332.3125,225.6875)"/>
<path d="M0 0 C0.33 0.66 0.66 1.32 1 2 C0.34 2 -0.32 2 -1 2 C-1.33 2.99 -1.66 3.98 -2 5 C-5.10356432 5.50378767 -8.20794223 6.00237413 -11.3125 6.5 C-12.19357422 6.64308594 -13.07464844 6.78617187 -13.98242188 6.93359375 C-14.82998047 7.06894531 -15.67753906 7.20429687 -16.55078125 7.34375 C-17.33106689 7.46943359 -18.11135254 7.59511719 -18.9152832 7.72460938 C-21.28826753 8.03808008 -23.61006522 8 -26 8 C-25.6875 5.125 -25.6875 5.125 -25 2 C-21.23771912 -0.50818726 -17.99988512 -0.48427476 -13.625 -0.6875 C-12.86960937 -0.73455078 -12.11421875 -0.78160156 -11.3359375 -0.83007812 C-7.4270827 -1.03850482 -3.77977292 -1.20398172 0 0 Z " fill="#FA5078" transform="translate(363,90)"/>
<path d="M0 0 C0.66 0.33 1.32 0.66 2 1 C4.50236916 1.09288682 6.97662686 1.12582412 9.47900391 1.11352539 C10.24982803 1.11367142 11.02065216 1.11381744 11.81483459 1.1139679 C14.36877229 1.11326989 16.92263751 1.10548275 19.4765625 1.09765625 C21.24490316 1.09579167 23.01324433 1.09436796 24.78158569 1.09336853 C29.44064759 1.0895465 34.09967842 1.07971888 38.75872803 1.06866455 C43.51102274 1.05844369 48.26332247 1.05386946 53.015625 1.04882812 C62.34376367 1.03809634 71.67187925 1.02102367 81 1 C81 1.33 81 1.66 81 2 C54.27 2.33 27.54 2.66 0 3 C0 12.24 0 21.48 0 31 C-0.99 31 -1.98 31 -3 31 C-2.90652699 26.90618601 -2.80044844 22.81291391 -2.68261719 18.71972656 C-2.64430673 17.32691428 -2.60945741 15.93400235 -2.578125 14.54101562 C-2.53252093 12.54013692 -2.47348377 10.53957854 -2.4140625 8.5390625 C-2.3826416 7.33459473 -2.3512207 6.13012695 -2.31884766 4.88916016 C-2 2 -2 2 0 0 Z " fill="#EE557B" transform="translate(313,73)"/>
<path d="M0 0 C0.78375 0.04125 1.5675 0.0825 2.375 0.125 C1.055 0.455 -0.265 0.785 -1.625 1.125 C-1.625 1.785 -1.625 2.445 -1.625 3.125 C-0.635 3.455 0.355 3.785 1.375 4.125 C0.385 4.125 -0.605 4.125 -1.625 4.125 C-1.295 6.105 -0.965 8.085 -0.625 10.125 C0.365 10.455 1.355 10.785 2.375 11.125 C2.705 10.135 3.035 9.145 3.375 8.125 C4.365 8.455 5.355 8.785 6.375 9.125 C6.25 11 6.25 11 5.375 13.125 C2.625 14.5625 2.625 14.5625 -0.625 15.125 C-3.5 13.75 -3.5 13.75 -5.625 12.125 C-5.955 12.785 -6.285 13.445 -6.625 14.125 C-7.615 13.795 -8.605 13.465 -9.625 13.125 C-9.625 9.165 -9.625 5.205 -9.625 1.125 C-7.15 1.62 -7.15 1.62 -4.625 2.125 C-2.625 0.125 -2.625 0.125 0 0 Z M-6.625 3.125 C-6.625 4.775 -6.625 6.425 -6.625 8.125 C-6.295 8.125 -5.965 8.125 -5.625 8.125 C-5.625 6.475 -5.625 4.825 -5.625 3.125 C-5.955 3.125 -6.285 3.125 -6.625 3.125 Z " fill="#E6889C" transform="translate(270.625,278.875)"/>
<path d="M0 0 C4.95 0 9.9 0 15 0 C15.33 1.32 15.66 2.64 16 4 C17.9837767 5.28436734 17.9837767 5.28436734 20 6 C20.66 4.02 21.32 2.04 22 0 C29.59 0 37.18 0 45 0 C45 1.65 45 3.3 45 5 C44.505 3.02 44.505 3.02 44 1 C37.4 1 30.8 1 24 1 C23.67 2.98 23.34 4.96 23 7 C22 8 22 8 18.4375 8.0625 C17.303125 8.041875 16.16875 8.02125 15 8 C13.5393715 5.35261084 13 4.10551666 13 1 C9.04 1 5.08 1 1 1 C1 15.52 1 30.04 1 45 C0.67 45 0.34 45 0 45 C0 30.15 0 15.3 0 0 Z " fill="#F99AB2" transform="translate(282,143)"/>
<path d="M0 0 C0.99 0.33 1.98 0.66 3 1 C4.125 8.75 4.125 8.75 3 11 C3.99 11 4.98 11 6 11 C6 7.7 6 4.4 6 1 C7.32 1 8.64 1 10 1 C10 5.29 10 9.58 10 14 C5.50114053 14.86516528 2.98352209 15.30903272 -1 13 C-1.02686553 11.02090602 -1.04633375 9.04171029 -1.0625 7.0625 C-1.07410156 5.96035156 -1.08570313 4.85820312 -1.09765625 3.72265625 C-1 1 -1 1 0 0 Z " fill="#E1728B" transform="translate(319,279)"/>
<path d="M0 0 C0.66 0.99 1.32 1.98 2 3 C1.01 3.495 1.01 3.495 0 4 C-0.46751788 6.35599235 -0.46751788 6.35599235 -0.625 9.0625 C-0.69976562 9.98160156 -0.77453125 10.90070313 -0.8515625 11.84765625 C-0.90054687 12.55792969 -0.94953125 13.26820312 -1 14 C-0.34 14 0.32 14 1 14 C1 14.66 1 15.32 1 16 C2.32 16.33 3.64 16.66 5 17 C5 17.66 5 18.32 5 19 C8.89609609 18.86070975 12.79179962 18.71242069 16.6875 18.5625 C17.79029297 18.52318359 18.89308594 18.48386719 20.02929688 18.44335938 C21.6293457 18.38051758 21.6293457 18.38051758 23.26171875 18.31640625 C24.73064575 18.26141968 24.73064575 18.26141968 26.22924805 18.20532227 C28.89465177 18.00780667 31.39469788 17.58426967 34 17 C26.90837885 22.94162853 19.85487697 22.57977954 10.98583984 22.19238281 C5.62427982 21.67296933 1.52068894 18.99346717 -2 15 C-3.19211438 11.42365687 -3.25926574 8.75935317 -3 5 C-1.5 2.0625 -1.5 2.0625 0 0 Z " fill="#EE7DA0" transform="translate(337,92)"/>
<path d="M0 0 C0.33 0 0.66 0 1 0 C1 4.62 1 9.24 1 14 C-9.395 14.495 -9.395 14.495 -20 15 C-20 32.49 -20 49.98 -20 68 C-20.33 68 -20.66 68 -21 68 C-21.2185279 60.34664956 -21.41357081 52.69296295 -21.59204102 45.03857422 C-21.65559638 42.4329667 -21.7245927 39.82748611 -21.79907227 37.22216797 C-21.90499661 33.484247 -21.99155207 29.74631095 -22.07421875 26.0078125 C-22.11157639 24.83695099 -22.14893402 23.66608948 -22.18742371 22.45974731 C-22.20767105 21.37877777 -22.2279184 20.29780823 -22.2487793 19.18408203 C-22.27320602 18.22921906 -22.29763275 17.27435608 -22.32279968 16.29055786 C-22.21627579 15.53467377 -22.10975189 14.77878967 -22 14 C-18.84685215 11.89790143 -18.13896919 11.7565239 -14.55078125 11.8046875 C-13.27944336 11.81435547 -13.27944336 11.81435547 -11.98242188 11.82421875 C-10.66081055 11.84935547 -10.66081055 11.84935547 -9.3125 11.875 C-7.97348633 11.88853516 -7.97348633 11.88853516 -6.60742188 11.90234375 C-4.40483334 11.92590085 -2.20238275 11.96177156 0 12 C0 8.04 0 4.08 0 0 Z " fill="#F47C99" transform="translate(295,122)"/>
<path d="M0 0 C16.83 0 33.66 0 51 0 C51 0.33 51 0.66 51 1 C34.83 1 18.66 1 2 1 C2.33 8.26 2.66 15.52 3 23 C4.98 23.99 6.96 24.98 9 26 C7.3125 26.6875 7.3125 26.6875 5 27 C3.35 26.01 1.7 25.02 0 24 C0 16.08 0 8.16 0 0 Z " fill="#F08AA4" transform="translate(319,81)"/>
<path d="M0 0 C3.25543229 0.34879632 4.01873107 1.02133261 6.25 3.5625 C6.8275 4.366875 7.405 5.17125 8 6 C9.65 4.02 11.3 2.04 13 0 C13.99 0.33 14.98 0.66 16 1 C13.31395349 6.62790698 13.31395349 6.62790698 11.3125 9 C9.52651763 11.72149694 9.7829838 13.81709567 10 17 C8.68 17.33 7.36 17.66 6 18 C5.98582031 17.40832031 5.97164063 16.81664062 5.95703125 16.20703125 C5.59979025 10.28841683 4.52763984 8.06326653 0 4 C0 2.68 0 1.36 0 0 Z " fill="#E5748A" transform="translate(381,275)"/>
<path d="M0 0 C0.99 0 1.98 0 3 0 C3 3.3 3 6.6 3 10 C4.32 10 5.64 10 7 10 C7 6.7 7 3.4 7 0 C8.32 0 9.64 0 11 0 C11 3.96 11 7.92 11 12 C7.75 13.125 7.75 13.125 4 14 C2.68 13.34 1.36 12.68 0 12 C0 8.04 0 4.08 0 0 Z " fill="#E38CA0" transform="translate(409,280)"/>
<path d="M0 0 C0.99 0 1.98 0 3 0 C3 1.65 3 3.3 3 5 C3.66 5.33 4.32 5.66 5 6 C4.67 6.66 4.34 7.32 4 8 C3.77377919 9.70363822 3.59111527 11.41328701 3.4375 13.125 C3.35371094 14.03507812 3.26992188 14.94515625 3.18359375 15.8828125 C3.12300781 16.58148438 3.06242187 17.28015625 3 18 C2.01 18 1.02 18 0 18 C-0.268125 16.906875 -0.53625 15.81375 -0.8125 14.6875 C-2.07108677 10.66943394 -2.07108677 10.66943394 -5 8 C-5.99 7.67 -6.98 7.34 -8 7 C-8 6.34 -8 5.68 -8 5 C-3.25 3.875 -3.25 3.875 -1 5 C-0.67 3.35 -0.34 1.7 0 0 Z " fill="#EA7792" transform="translate(277,275)"/>
<path d="M0 0 C0.87890625 6.15234375 0.87890625 6.15234375 1 8 C0 9 0 9 -1.94946289 9.11352539 C-2.7821167 9.10828857 -3.61477051 9.10305176 -4.47265625 9.09765625 C-5.37177734 9.09443359 -6.27089844 9.09121094 -7.19726562 9.08789062 C-8.14279297 9.07951172 -9.08832031 9.07113281 -10.0625 9.0625 C-11.01189453 9.05798828 -11.96128906 9.05347656 -12.93945312 9.04882812 C-15.29303065 9.0370011 -17.64648477 9.02052025 -20 9 C-20 8.67 -20 8.34 -20 8 C-13.73 7.67 -7.46 7.34 -1 7 C-1.66 6.01 -2.32 5.02 -3 4 C-4.93076478 3.58571654 -4.93076478 3.58571654 -7.1328125 3.70703125 C-7.93847656 3.71669922 -8.74414062 3.72636719 -9.57421875 3.73632812 C-10.41597656 3.76146484 -11.25773437 3.78660156 -12.125 3.8125 C-12.97449219 3.82603516 -13.82398438 3.83957031 -14.69921875 3.85351562 C-16.79974837 3.88891781 -18.89995293 3.94272599 -21 4 C-21.33 5.65 -21.66 7.3 -22 9 C-22.33 9 -22.66 9 -23 9 C-23.33 6.69 -23.66 4.38 -24 2 C-15.97649696 0.81603117 -8.13544686 -0.28545428 0 0 Z " fill="#F58199" transform="translate(366,95)"/>
<path d="M0 0 C0.66 0 1.32 0 2 0 C3.3287931 5.61045976 3.64469248 12.71061503 1 18 C-1.25 18.9375 -1.25 18.9375 -4 19 C-6.8125 16.6875 -6.8125 16.6875 -9 14 C-9 13.34 -9 12.68 -9 12 C-7.68 12 -6.36 12 -5 12 C-5 12.99 -5 13.98 -5 15 C-4.01 14.67 -3.02 14.34 -2 14 C-1.93941406 13.07316406 -1.87882812 12.14632813 -1.81640625 11.19140625 C-1.73261719 9.99386719 -1.64882813 8.79632813 -1.5625 7.5625 C-1.48128906 6.36753906 -1.40007812 5.17257812 -1.31640625 3.94140625 C-1 1 -1 1 0 0 Z " fill="#E3849C" transform="translate(314,275)"/>
<path d="M0 0 C5.625 -0.25 5.625 -0.25 9 2 C9.66 1.34 10.32 0.68 11 0 C16.95169082 -0.5410628 16.95169082 -0.5410628 19.9375 1 C21.67278693 4.26642246 21.17982715 7.34351452 21 11 C20.67 11 20.34 11 20 11 C20 8.69 20 6.38 20 4 C19.34 4 18.68 4 18 4 C18 4.66 18 5.32 18 6 C13.25579842 6.23142447 9.53165029 5.3427112 5 4 C3.68 4 2.36 4 1 4 C0.67 2.68 0.34 1.36 0 0 Z M12 4 C12 4.33 12 4.66 12 5 C13.65 5 15.3 5 17 5 C17 4.67 17 4.34 17 4 C15.35 4 13.7 4 12 4 Z " fill="#ED9DB1" transform="translate(280,279)"/>
<path d="M0 0 C3.29164829 -0.02895225 6.58326399 -0.0467823 9.875 -0.0625 C10.81214844 -0.07087891 11.74929688 -0.07925781 12.71484375 -0.08789062 C14.05869141 -0.09272461 14.05869141 -0.09272461 15.4296875 -0.09765625 C16.67081299 -0.10551147 16.67081299 -0.10551147 17.93701172 -0.11352539 C20 0 20 0 22 1 C22 2.65 22 4.3 22 6 C23.32 5.67 24.64 5.34 26 5 C25.67 5.99 25.34 6.98 25 8 C26.98491642 7.73323796 26.98491642 7.73323796 29 7 C29.33 6.01 29.66 5.02 30 4 C29.125 8.875 29.125 8.875 28 10 C25 10.125 25 10.125 22 10 C21.67 9.67 21.34 9.34 21 9 C21 6.69 21 4.38 21 2 C13.74 2 6.48 2 -1 2 C-0.67 1.34 -0.34 0.68 0 0 Z " fill="#E75B7B" transform="translate(306,141)"/>
<path d="M0 0 C0.66 0 1.32 0 2 0 C3.60670684 3.21341369 2.82510855 6.62958968 2.5625 10.125 C2.51029297 10.87910156 2.45808594 11.63320313 2.40429688 12.41015625 C2.27454996 14.2737937 2.13792512 16.13694996 2 18 C-1.84375 16.328125 -1.84375 16.328125 -3.25 13.375 C-3.4975 12.59125 -3.745 11.8075 -4 11 C-3.01 10.67 -2.02 10.34 -1 10 C-1.01160156 9.36191406 -1.02320313 8.72382813 -1.03515625 8.06640625 C-1.04869141 6.82697266 -1.04869141 6.82697266 -1.0625 5.5625 C-1.07410156 4.73878906 -1.08570313 3.91507812 -1.09765625 3.06640625 C-1 1 -1 1 0 0 Z " fill="#E8839A" transform="translate(257,275)"/>
<path d="M0 0 C0.33 0 0.66 0 1 0 C1 4.95 1 9.9 1 15 C2.40894531 14.96519531 3.81789063 14.93039063 5.26953125 14.89453125 C7.11717559 14.86639453 8.96483281 14.83909425 10.8125 14.8125 C11.74126953 14.78736328 12.67003906 14.76222656 13.62695312 14.73632812 C14.9659668 14.72182617 14.9659668 14.72182617 16.33203125 14.70703125 C17.56530151 14.68346558 17.56530151 14.68346558 18.82348633 14.65942383 C21.47502434 15.07433079 22.33263592 15.95529751 24 18 C23.34 18.33 22.68 18.66 22 19 C21.34 18.67 20.68 18.34 20 18 C18.4804236 17.84876169 16.95527498 17.75118307 15.4296875 17.68359375 C14.53378906 17.64169922 13.63789063 17.59980469 12.71484375 17.55664062 C11.77769531 17.51732422 10.84054687 17.47800781 9.875 17.4375 C8.93011719 17.39431641 7.98523438 17.35113281 7.01171875 17.30664062 C4.67462908 17.20040928 2.3374317 17.09836824 0 17 C-0.73955636 11.08286438 -1.14990891 5.8773122 0 0 Z " fill="#F0829D" transform="translate(335,119)"/>
<path d="M0 0 C1.13865385 3.41596155 1.02524163 5.82462209 0.87890625 9.41796875 C0.83056641 10.67158203 0.78222656 11.92519531 0.73242188 13.21679688 C0.67634766 14.52712891 0.62027344 15.83746094 0.5625 17.1875 C0.50925765 18.5227663 0.4565174 19.85805272 0.40429688 21.19335938 C0.27447654 24.46247144 0.13950464 27.73128919 0 31 C-0.99 31 -1.98 31 -3 31 C-2.90652699 26.90618601 -2.80044844 22.81291391 -2.68261719 18.71972656 C-2.64430673 17.32691428 -2.60945741 15.93400235 -2.578125 14.54101562 C-2.53252093 12.54013692 -2.47348377 10.53957854 -2.4140625 8.5390625 C-2.3826416 7.33459473 -2.3512207 6.13012695 -2.31884766 4.88916016 C-2 2 -2 2 0 0 Z " fill="#ED869E" transform="translate(313,73)"/>
<path d="M0 0 C1.62711914 -0.0299707 1.62711914 -0.0299707 3.28710938 -0.06054688 C11.27100595 -0.05563975 11.27100595 -0.05563975 15.31640625 2.46484375 C15.89261719 3.11582031 16.46882813 3.76679687 17.0625 4.4375 C9.44325128 3.53352134 9.44325128 3.53352134 6.83203125 2.875 C2.97899016 2.26633907 -0.68581237 2.58722541 -4.5625 2.875 C-12.78472222 3.4375 -12.78472222 3.4375 -15.9375 3.4375 C-11.1226981 -0.83862246 -6.14621554 -0.04002864 0 0 Z " fill="#EE7994" transform="translate(353.9375,87.5625)"/>
<path d="M0 0 C0.66 0.33 1.32 0.66 2 1 C2.42911461 6.23519826 2.42911461 6.23519826 2 9 C-0.125 11.125 -0.125 11.125 -3 12 C-6.3125 11.1875 -6.3125 11.1875 -9 10 C-9 8.02 -9 6.04 -9 4 C-8.67 4.99 -8.34 5.98 -8 7 C-6.35 7 -4.7 7 -3 7 C-2.67 6.34 -2.34 5.68 -2 5 C-1.34 5 -0.68 5 0 5 C0 3.35 0 1.7 0 0 Z " fill="#E77C9A" transform="translate(406,282)"/>
<path d="M0 0 C0.66 0 1.32 0 2 0 C2.33 2.64 2.66 5.28 3 8 C4.98 8 6.96 8 9 8 C8.67 9.32 8.34 10.64 8 12 C5.12342252 12.87895423 3.53622558 13.20289616 0.6875 12.125 C-1.69175298 9.12890365 -1.35284496 6.6872728 -1.23828125 2.9609375 C-1 1 -1 1 0 0 Z " fill="#DD7D96" transform="translate(359,281)"/>
<path d="M0 0 C1.98 0 3.96 0 6 0 C5.67 1.32 5.34 2.64 5 4 C4.34 4 3.68 4 3 4 C3 6.97 3 9.94 3 13 C1.68 13 0.36 13 -1 13 C-0.67 8.71 -0.34 4.42 0 0 Z " fill="#E8889F" transform="translate(371,279)"/>
<path d="M0 0 C2.31 0.66 4.62 1.32 7 2 C7 8.27 7 14.54 7 21 C6.34 21 5.68 21 5 21 C4.67 15.06 4.34 9.12 4 3 C2.68 3.99 1.36 4.98 0 6 C0 4.02 0 2.04 0 0 Z " fill="#EB8099" transform="translate(306,113)"/>
<path d="M0 0 C1.32 0 2.64 0 4 0 C4 3.96 4 7.92 4 12 C2.35 12 0.7 12 -1 12 C-0.67 8.04 -0.34 4.08 0 0 Z " fill="#E67E98" transform="translate(416,280)"/>
<path d="M0 0 C5.61 0 11.22 0 17 0 C17 1.65 17 3.3 17 5 C16.649375 4.505 16.29875 4.01 15.9375 3.5 C12.94927177 1.18653299 10.65496159 1.5431298 7 2 C5.01760473 3.86124923 5.01760473 3.86124923 4 6 C2.68 5.67 1.36 5.34 0 5 C0 3.35 0 1.7 0 0 Z " fill="#55575B" transform="translate(207,246)"/>
<path d="M0 0 C0.66 0 1.32 0 2 0 C2 1.98 2 3.96 2 6 C-7.375 9.125 -7.375 9.125 -12 7 C-12 6.67 -12 6.34 -12 6 C-10.02 6 -8.04 6 -6 6 C-6 5.34 -6 4.68 -6 4 C-4.68 3.34 -3.36 2.68 -2 2 C-1.67 2.33 -1.34 2.66 -1 3 C-0.67 2.01 -0.34 1.02 0 0 Z " fill="#888992" transform="translate(342,233)"/>
<path d="M0 0 C2.16874252 0.50603992 3.99967627 0.99983813 6 2 C6 2.66 6 3.32 6 4 C6.66 4.33 7.32 4.66 8 5 C6.375 6.625 6.375 6.625 4 8 C0.75 7.1875 0.75 7.1875 -2 6 C-2 5.01 -2 4.02 -2 3 C-1.34 3 -0.68 3 0 3 C0 2.01 0 1.02 0 0 Z " fill="#E9879E" transform="translate(292,286)"/>
<path d="M0 0 C1.32 0.33 2.64 0.66 4 1 C3.979375 1.928125 3.95875 2.85625 3.9375 3.8125 C3.84230396 7.02286011 3.84230396 7.02286011 5 10 C4.01 11.485 4.01 11.485 3 13 C2.01 12.67 1.02 12.34 0 12 C0 8.04 0 4.08 0 0 Z " fill="#EE94AA" transform="translate(261,280)"/>
<path d="M0 0 C2.0625 0.4375 2.0625 0.4375 4 1 C3.34 1.66 2.68 2.32 2 3 C1.67 3 1.34 3 1 3 C1 8.94 1 14.88 1 21 C0.34 21 -0.32 21 -1 21 C-1.02888146 17.68751813 -1.04675799 14.37506833 -1.0625 11.0625 C-1.07087891 10.11697266 -1.07925781 9.17144531 -1.08789062 8.19726562 C-1.09111328 7.29814453 -1.09433594 6.39902344 -1.09765625 5.47265625 C-1.10289307 4.64000244 -1.10812988 3.80734863 -1.11352539 2.94946289 C-1 1 -1 1 0 0 Z " fill="#F098AC" transform="translate(320,113)"/>
<path d="M0 0 C2.33523916 3.50285874 2.18495942 4.65629938 1.9765625 8.76171875 C1.925 9.87998047 1.8734375 10.99824219 1.8203125 12.15039062 C1.75585938 13.31763672 1.69140625 14.48488281 1.625 15.6875 C1.56828125 16.86634766 1.5115625 18.04519531 1.453125 19.25976562 C1.31155328 22.17378352 1.16013058 25.08695257 1 28 C0.67 28 0.34 28 0 28 C-0.33 22.06 -0.66 16.12 -1 10 C-1.33 10 -1.66 10 -2 10 C-2 8.35 -2 6.7 -2 5 C-1.34 5 -0.68 5 0 5 C0 3.35 0 1.7 0 0 Z " fill="#989A9E" transform="translate(395,235)"/>
<path d="M0 0 C-1.32 0.33 -2.64 0.66 -4 1 C-4 1.66 -4 2.32 -4 3 C-3.01 3.33 -2.02 3.66 -1 4 C-1.99 4 -2.98 4 -4 4 C-4.66 6.31 -5.32 8.62 -6 11 C-6.66 10.67 -7.32 10.34 -8 10 C-8.36272727 3.59181818 -8.36272727 3.59181818 -6.8125 1.0625 C-4.43958382 -0.32851983 -2.70313576 -0.21917317 0 0 Z " fill="#E198A6" transform="translate(273,279)"/>
<path d="M0 0 C5.625 -0.25 5.625 -0.25 9 2 C9.40843923 4.71203652 9.13336867 7.2437142 9 10 C8.67 10 8.34 10 8 10 C7.67 8.02 7.34 6.04 7 4 C6.34 5.32 5.68 6.64 5 8 C5 6.68 5 5.36 5 4 C3.68 3.67 2.36 3.34 1 3 C1.33 2.34 1.66 1.68 2 1 C1.34 0.67 0.68 0.34 0 0 Z " fill="#EFB6C4" transform="translate(400,279)"/>
<path d="M0 0 C0.33 0 0.66 0 1 0 C1 1.65 1 3.3 1 5 C2.32 4.67 3.64 4.34 5 4 C4.67 4.99 4.34 5.98 4 7 C5.98491642 6.73323796 5.98491642 6.73323796 8 6 C8.33 5.01 8.66 4.02 9 3 C8.125 7.875 8.125 7.875 7 9 C4 9.125 4 9.125 1 9 C0 8 0 8 -0.09765625 6.15234375 C-0.06510417 4.1015625 -0.03255208 2.05078125 0 0 Z " fill="#E97590" transform="translate(327,142)"/>
<path d="M0 0 C-0.99 0.66 -1.98 1.32 -3 2 C-2.67 2.66 -2.34 3.32 -2 4 C-3.32 4.33 -4.64 4.66 -6 5 C-6.33 4.34 -6.66 3.68 -7 3 C-7.66 3 -8.32 3 -9 3 C-8.814375 3.53625 -8.62875 4.0725 -8.4375 4.625 C-7.88580676 7.61990614 -8.39402556 10.03745829 -9 13 C-9.33 13 -9.66 13 -10 13 C-10 9.04 -10 5.08 -10 1 C-6.52674819 -0.1577506 -3.63932552 -0.06866652 0 0 Z " fill="#F5B1C8" transform="translate(339,279)"/>
<path d="M0 0 C1.8125 0.125 1.8125 0.125 4 1 C5.75 4.0625 5.75 4.0625 7 7 C6.34 7.66 5.68 8.32 5 9 C2.5 6.75 2.5 6.75 0 4 C0 2.68 0 1.36 0 0 Z " fill="#E594A1" transform="translate(381,275)"/>
<path d="M0 0 C0.66 0 1.32 0 2 0 C1.67 5.61 1.34 11.22 1 17 C0.34 16.67 -0.32 16.34 -1 16 C-1.02685095 13.52076199 -1.04676547 11.0418116 -1.0625 8.5625 C-1.07506836 7.50192383 -1.07506836 7.50192383 -1.08789062 6.41992188 C-1.09653588 4.61306441 -1.05220011 2.80612397 -1 1 C-0.67 0.67 -0.34 0.34 0 0 Z " fill="#EB577A" transform="translate(304,117)"/>
<path d="M0 0 C0.33 0 0.66 0 1 0 C1.14285714 7.42857143 1.14285714 7.42857143 0 11 C-1.65 10.67 -3.3 10.34 -5 10 C-4.67 7.69 -4.34 5.38 -4 3 C-3.67 3.99 -3.34 4.98 -3 6 C-2.34 6 -1.68 6 -1 6 C-0.67 4.02 -0.34 2.04 0 0 Z " fill="#F59CB8" transform="translate(370,280)"/>
<path d="M0 0 C0.99 0 1.98 0 3 0 C3 0.66 3 1.32 3 2 C3.61875 2.12375 4.2375 2.2475 4.875 2.375 C7 3 7 3 9 5 C6.08517222 5.80967438 4.53886783 6.21845993 1.6875 5.0625 C1.130625 4.711875 0.57375 4.36125 0 4 C0 2.68 0 1.36 0 0 Z " fill="#E988A1" transform="translate(330,288)"/>
<path d="M0 0 C1.32 0.33 2.64 0.66 4 1 C4.33 2.65 4.66 4.3 5 6 C3.68 6.33 2.36 6.66 1 7 C0 4 0 4 0 0 Z " fill="#E77193" transform="translate(336,285)"/>
<path d="M0 0 C0.66 0 1.32 0 2 0 C2.33 1.98 2.66 3.96 3 6 C2.01 6.495 2.01 6.495 1 7 C0.59270772 9.32156597 0.25561323 11.6568787 0 14 C-0.33 14 -0.66 14 -1 14 C-1.02685938 11.85423363 -1.04633088 9.70837355 -1.0625 7.5625 C-1.07410156 6.36753906 -1.08570313 5.17257812 -1.09765625 3.94140625 C-1 1 -1 1 0 0 Z " fill="#DB9CA8" transform="translate(314,275)"/>
<path d="M0 0 C7.26 0 14.52 0 22 0 C22 0.33 22 0.66 22 1 C21.44538086 1.02505615 20.89076172 1.0501123 20.31933594 1.07592773 C17.79601157 1.19227927 15.27302464 1.31482754 12.75 1.4375 C11.44095703 1.49647461 11.44095703 1.49647461 10.10546875 1.55664062 C9.26113281 1.59853516 8.41679687 1.64042969 7.546875 1.68359375 C6.77182617 1.72025146 5.99677734 1.75690918 5.19824219 1.79467773 C3.0425024 1.99603015 1.08198525 2.41729297 -1 3 C-0.67 2.01 -0.34 1.02 0 0 Z " fill="#EA6988" transform="translate(274,135)"/>
<path d="M0 0 C9.99562363 -0.63019694 9.99562363 -0.63019694 14.1875 2 C15.0846875 2.99 15.0846875 2.99 16 4 C10.49191603 3.40984815 5.35121931 2.43336231 0 1 C0 0.67 0 0.34 0 0 Z " fill="#E98299" transform="translate(355,88)"/>
<path d="M0 0 C0.33 0 0.66 0 1 0 C1.33 1.65 1.66 3.3 2 5 C2.66 4.34 3.32 3.68 4 3 C4 5.64 4 8.28 4 11 C2.68 10.67 1.36 10.34 0 10 C0 6.7 0 3.4 0 0 Z " fill="#EDB9C9" transform="translate(352,282)"/>
<path d="M0 0 C0.33 0 0.66 0 1 0 C1 2.64 1 5.28 1 8 C-0.32 8 -1.64 8 -3 8 C-3 6.35 -3 4.7 -3 3 C-2.34 3 -1.68 3 -1 3 C-0.67 2.01 -0.34 1.02 0 0 Z " fill="#EE7B98" transform="translate(373,284)"/>
<path d="M0 0 C1.98 0.99 1.98 0.99 4 2 C3.5359375 3.2684375 3.5359375 3.2684375 3.0625 4.5625 C1.98461179 8.0497854 1.43418696 11.38177535 1 15 C0.67 15 0.34 15 0 15 C0 10.05 0 5.1 0 0 Z " fill="#ED6083" transform="translate(296,119)"/>
<path d="M0 0 C2.31 0 4.62 0 7 0 C6.67 1.32 6.34 2.64 6 4 C3.625 4.625 3.625 4.625 1 5 C0.34 4.34 -0.32 3.68 -1 3 C-0.67 2.01 -0.34 1.02 0 0 Z " fill="#E9879E" transform="translate(361,289)"/>
<path d="M0 0 C0.99 0.33 1.98 0.66 3 1 C3 2.32 3 3.64 3 5 C2.34 5 1.68 5 1 5 C0.67 7.64 0.34 10.28 0 13 C-0.33 13 -0.66 13 -1 13 C-1.02686553 11.02090602 -1.04633375 9.04171029 -1.0625 7.0625 C-1.07410156 5.96035156 -1.08570313 4.85820312 -1.09765625 3.72265625 C-1 1 -1 1 0 0 Z " fill="#E88BA9" transform="translate(319,279)"/>
<path d="M0 0 C0.99 0.33 1.98 0.66 3 1 C1.576875 1.8971875 1.576875 1.8971875 0.125 2.8125 C-3.13964197 4.81562526 -3.13964197 4.81562526 -5 8 C-5.99 8.33 -6.98 8.66 -8 9 C-6.99023354 5.36484074 -6.05356282 4.04330611 -3.0625 1.625 C-2.051875 1.08875 -1.04125 0.5525 0 0 Z " fill="#E97C93" transform="translate(307,105)"/>
<path d="M0 0 C1.52299523 2.93720508 2.80100302 5.9168649 4 9 C2.02 8.34 0.04 7.68 -2 7 C-1.34 4.69 -0.68 2.38 0 0 Z " fill="#ECA0B2" transform="translate(268,285)"/>
<path d="M0 0 C2.475 0.99 2.475 0.99 5 2 C5 3.32 5 4.64 5 6 C3.35 5.67 1.7 5.34 0 5 C0 3.35 0 1.7 0 0 Z " fill="#E793A6" transform="translate(342,288)"/>
<path d="M0 0 C0.66 0 1.32 0 2 0 C2.22174933 1.45635371 2.42698698 2.91522956 2.625 4.375 C2.74101562 5.18710937 2.85703125 5.99921875 2.9765625 6.8359375 C2.98429687 7.55007813 2.99203125 8.26421875 3 9 C2.34 9.66 1.68 10.32 1 11 C0 10 0 10 -0.09765625 7.71484375 C-0.08605469 6.79832031 -0.07445312 5.88179688 -0.0625 4.9375 C-0.05347656 4.01839844 -0.04445313 3.09929687 -0.03515625 2.15234375 C-0.02355469 1.44207031 -0.01195312 0.73179687 0 0 Z " fill="#F195B2" transform="translate(325,280)"/>
<path d="M0 0 C0.99 0 1.98 0 3 0 C3 3.3 3 6.6 3 10 C2.34 10 1.68 10 1 10 C-0.1577506 6.52674819 -0.06866652 3.63932552 0 0 Z " fill="#F05975" transform="translate(276,282)"/>
<path d="M0 0 C0.66 0 1.32 0 2 0 C2.33 3.3 2.66 6.6 3 10 C2.01 10 1.02 10 0 10 C0 6.7 0 3.4 0 0 Z " fill="#DC7F92" transform="translate(285,282)"/>
<path d="M0 0 C0.99 0 1.98 0 3 0 C2.67 3.3 2.34 6.6 2 10 C-0.13262124 6.80106814 -0.59021548 4.77001757 -1 1 C-0.67 0.67 -0.34 0.34 0 0 Z " fill="#E1778E" transform="translate(353,280)"/>
<path d="M0 0 C0.33 0.66 0.66 1.32 1 2 C1.99 1.67 2.98 1.34 4 1 C4.66 2.32 5.32 3.64 6 5 C5.01 6.485 5.01 6.485 4 8 C0 3.375 0 3.375 0 0 Z " fill="#7F8288" transform="translate(258,256)"/>
<path d="M0 0 C0.99 0.33 1.98 0.66 3 1 C2.34 2.98 1.68 4.96 1 7 C0.34 6.67 -0.32 6.34 -1 6 C-1 5.34 -1 4.68 -1 4 C-1.66 3.67 -2.32 3.34 -3 3 C-2.01 2.01 -1.02 1.02 0 0 Z " fill="#EA889E" transform="translate(399,279)"/>
<path d="M0 0 C1.66611905 -0.042721 3.33382885 -0.04063832 5 0 C6 1 6 1 6.0625 3.5625 C6.041875 4.366875 6.02125 5.17125 6 6 C5.34 6 4.68 6 4 6 C3.67 5.01 3.34 4.02 3 3 C2.01 2.67 1.02 2.34 0 2 C0 1.34 0 0.68 0 0 Z " fill="#DA7991" transform="translate(363,280)"/>
<path d="M0 0 C2.33333823 2.12121657 3.9148886 4.01594365 5 7 C4.625 9.25 4.625 9.25 4 11 C2.03698408 7.49461443 1.04097612 3.86648272 0 0 Z " fill="#ED879F" transform="translate(330,109)"/>
<path d="M0 0 C2.0625 0.4375 2.0625 0.4375 4 1 C4 2.65 4 4.3 4 6 C3.01 6 2.02 6 1 6 C0.34 4.35 -0.32 2.7 -1 1 C-0.67 0.67 -0.34 0.34 0 0 Z " fill="#EA6388" transform="translate(254,285)"/>
<path d="M0 0 C0.66 0.33 1.32 0.66 2 1 C2.94934202 3.92713788 3.23176473 5.42831368 2.0625 8.3125 C1.5365625 9.1478125 1.5365625 9.1478125 1 10 C0.63720544 8.71073008 0.28503302 7.41846728 -0.0625 6.125 C-0.35833984 5.04605469 -0.35833984 5.04605469 -0.66015625 3.9453125 C-1 2 -1 2 0 0 Z " fill="#EA6784" transform="translate(342,276)"/>
<path d="M0 0 C0.99 0.33 1.98 0.66 3 1 C2.34 2.65 1.68 4.3 1 6 C0.34 5.34 -0.32 4.68 -1 4 C-1.33 4.66 -1.66 5.32 -2 6 C-2.66 5.67 -3.32 5.34 -4 5 C-2.68 3.35 -1.36 1.7 0 0 Z " fill="#E18D98" transform="translate(394,275)"/>
<path d="M0 0 C2.125 0.9375 2.125 0.9375 4 2 C0.25 5 0.25 5 -2 5 C-2 3.68 -2 2.36 -2 1 C-1.34 0.67 -0.68 0.34 0 0 Z " fill="#D58897" transform="translate(355,274)"/>
<path d="M0 0 C1.65 0 3.3 0 5 0 C2.25 4.875 2.25 4.875 0 6 C-0.66 5.34 -1.32 4.68 -2 4 C-1.34 3.34 -0.68 2.68 0 2 C0 1.34 0 0.68 0 0 Z " fill="#66686F" transform="translate(325,225)"/>
<path d="M0 0 C1.32 0.33 2.64 0.66 4 1 C3.34 2.65 2.68 4.3 2 6 C1.34 5.67 0.68 5.34 0 5 C0 3.35 0 1.7 0 0 Z " fill="#E06A84" transform="translate(265,284)"/>
<path d="M0 0 C0 1.32 0 2.64 0 4 C-1.98 3.34 -3.96 2.68 -6 2 C-6 1.34 -6 0.68 -6 0 C-2.25 -1.125 -2.25 -1.125 0 0 Z " fill="#DF748A" transform="translate(275,280)"/>
<path d="M0 0 C0.99 0 1.98 0 3 0 C3.66 0.66 4.32 1.32 5 2 C4.01 2.99 3.02 3.98 2 5 C1.34 4.67 0.68 4.34 0 4 C-0.33 4.66 -0.66 5.32 -1 6 C-0.67 4.02 -0.34 2.04 0 0 Z " fill="#51535A" transform="translate(385,229)"/>
<path d="M0 0 C2.475 0.495 2.475 0.495 5 1 C3.35 2.65 1.7 4.3 0 6 C0 4.02 0 2.04 0 0 Z " fill="#F37B99" transform="translate(306,113)"/>
<path d="M0 0 C0.99 0.99 1.98 1.98 3 3 C2.67 3.66 2.34 4.32 2 5 C1.01 4.67 0.02 4.34 -1 4 C-0.67 2.68 -0.34 1.36 0 0 Z " fill="#DCA7B2" transform="translate(262,274)"/>
<path d="M0 0 C0.66 0.33 1.32 0.66 2 1 C2 1.99 2 2.98 2 4 C1.01 4 0.02 4 -1 4 C-0.67 2.68 -0.34 1.36 0 0 Z " fill="#D08495" transform="translate(423,289)"/>
</svg>
